# xmcd
#
# Track frame offsets:
#	182
#	22915
#	44032
#	75097
#
# Disc length: 1142 seconds
#
# Revision: 2
# Processed by: cddbd v1.5.2PL0 Copyright (c) Steve Scherf et al.
# Submitted via: audiograbber 1.83.01
#
DISCID=20047404
DTITLE=Gary Moore - Parisienne Walkways '93 Limited Edition 1
DYEAR=1993
DGENRE=Rock
TTITLE0=Parisienne Walkways (live)
TTITLE1=Since I Met You Baby (with B.B.King) (live)
TTITLE2=Still Got The Blues (live)
TTITLE3=Key To Love (live)
EXTD=
EXTT0=
EXTT1=
EXTT2=
EXTT3=
PLAYORDER=
